<svg width="457" height="150" viewBox="0 0 457 150" fill="none" xmlns="http://www.w3.org/2000/svg">
<path d="M111 0L162.962 30V90L111 120L59.0385 90V30L111 0Z" fill="#E54958" fill-opacity="0.75"/>
<path d="M59 30L110.962 60V120L59 150L7.03848 120V60L59 30Z" fill="#19BBFE" fill-opacity="0.75"/>
<path fill-rule="evenodd" clip-rule="evenodd" d="M111 60L162.962 30L111 0L59.0386 30L111 60Z" fill="#E64958"/>
<path fill-rule="evenodd" clip-rule="evenodd" d="M58.9615 150L110.923 120L58.9615 90L7 120L58.9615 150Z" fill="#19BBFE"/>
<path fill-rule="evenodd" clip-rule="evenodd" d="M110.962 119.978L59.0386 90V30.0222L110.962 60V119.978Z" fill="url(#paint0_linear)"/>
<path d="M195.264 69.576C193.472 69.576 191.872 69.272 190.464 68.664C189.088 68.024 187.92 67.144 186.96 66.024C186 64.904 185.264 63.544 184.752 61.944C184.272 60.344 184.032 58.568 184.032 56.616C184.032 54.664 184.288 52.888 184.8 51.288C185.312 49.688 186.048 48.328 187.008 47.208C187.968 46.056 189.136 45.176 190.512 44.568C191.888 43.96 193.456 43.656 195.216 43.656C197.616 43.656 199.568 44.184 201.072 45.24C202.576 46.296 203.68 47.672 204.384 49.368L201.312 51C200.864 49.72 200.112 48.728 199.056 48.024C198.032 47.32 196.752 46.968 195.216 46.968C194.096 46.968 193.088 47.16 192.192 47.544C191.328 47.896 190.592 48.408 189.984 49.08C189.376 49.752 188.912 50.552 188.592 51.48C188.304 52.408 188.16 53.416 188.16 54.504V58.728C188.16 59.816 188.304 60.824 188.592 61.752C188.912 62.68 189.376 63.48 189.984 64.152C190.592 64.824 191.344 65.352 192.24 65.736C193.136 66.088 194.16 66.264 195.312 66.264C196.976 66.264 198.352 65.88 199.44 65.112C200.528 64.344 201.392 63.288 202.032 61.944L204.768 63.816C204.032 65.48 202.88 66.856 201.312 67.944C199.776 69.032 197.76 69.576 195.264 69.576ZM221.261 69.576C219.533 69.576 217.965 69.272 216.557 68.664C215.181 68.056 213.997 67.192 213.005 66.072C212.045 64.92 211.309 63.56 210.797 61.992C210.285 60.392 210.029 58.6 210.029 56.616C210.029 54.664 210.285 52.888 210.797 51.288C211.309 49.688 212.045 48.328 213.005 47.208C213.997 46.056 215.181 45.176 216.557 44.568C217.965 43.96 219.533 43.656 221.261 43.656C222.989 43.656 224.541 43.96 225.917 44.568C227.325 45.176 228.509 46.056 229.469 47.208C230.461 48.328 231.213 49.688 231.725 51.288C232.237 52.888 232.493 54.664 232.493 56.616C232.493 58.6 232.237 60.392 231.725 61.992C231.213 63.56 230.461 64.92 229.469 66.072C228.509 67.192 227.325 68.056 225.917 68.664C224.541 69.272 222.989 69.576 221.261 69.576ZM221.261 66.264C223.405 66.264 225.133 65.624 226.445 64.344C227.757 63.064 228.413 61.08 228.413 58.392V54.84C228.413 52.152 227.757 50.168 226.445 48.888C225.133 47.608 223.405 46.968 221.261 46.968C219.117 46.968 217.389 47.608 216.077 48.888C214.765 50.168 214.109 52.152 214.109 54.84V58.392C214.109 61.08 214.765 63.064 216.077 64.344C217.389 65.624 219.117 66.264 221.261 66.264ZM236.314 69V44.232H239.867V47.112H240.058C240.443 46.152 240.987 45.336 241.691 44.664C242.395 43.992 243.435 43.656 244.811 43.656C246.251 43.656 247.323 44.024 248.027 44.76C248.731 45.464 249.163 46.392 249.323 47.544H249.467C249.915 46.424 250.555 45.496 251.387 44.76C252.219 44.024 253.371 43.656 254.843 43.656C256.859 43.656 258.203 44.36 258.875 45.768C259.579 47.176 259.931 49.192 259.931 51.816V69H256.379V52.44C256.379 50.328 256.155 48.872 255.707 48.072C255.291 47.24 254.507 46.824 253.355 46.824C252.331 46.824 251.499 47.16 250.859 47.832C250.219 48.472 249.899 49.464 249.899 50.808V69H246.347V52.44C246.347 50.328 246.123 48.872 245.675 48.072C245.259 47.24 244.491 46.824 243.371 46.824C242.347 46.824 241.499 47.16 240.826 47.832C240.187 48.472 239.867 49.464 239.867 50.808V69H236.314ZM265.144 44.232H268.984V48.264H269.176C270.776 45.192 273.32 43.656 276.808 43.656C279.848 43.656 282.216 44.792 283.912 47.064C285.64 49.336 286.504 52.52 286.504 56.616C286.504 60.712 285.64 63.896 283.912 66.168C282.216 68.44 279.848 69.576 276.808 69.576C273.32 69.576 270.776 68.04 269.176 64.968H268.984V78.6H265.144V44.232ZM275.32 66.168C277.56 66.168 279.288 65.496 280.504 64.152C281.752 62.776 282.376 60.968 282.376 58.728V54.504C282.376 52.264 281.752 50.472 280.504 49.128C279.288 47.752 277.56 47.064 275.32 47.064C274.456 47.064 273.64 47.176 272.872 47.4C272.104 47.624 271.432 47.96 270.856 48.408C270.28 48.824 269.816 49.352 269.464 49.992C269.144 50.6 268.984 51.32 268.984 52.152V61.08C268.984 61.912 269.144 62.648 269.464 63.288C269.816 63.896 270.28 64.424 270.856 64.872C271.432 65.288 272.104 65.608 272.872 65.832C273.64 66.056 274.456 66.168 275.32 66.168ZM301.845 69.576C300.117 69.576 298.549 69.272 297.141 68.664C295.765 68.056 294.581 67.192 293.589 66.072C292.629 64.92 291.893 63.56 291.381 61.992C290.869 60.392 290.613 58.6 290.613 56.616C290.613 54.664 290.869 52.888 291.381 51.288C291.893 49.688 292.629 48.328 293.589 47.208C294.581 46.056 295.765 45.176 297.141 44.568C298.549 43.96 300.117 43.656 301.845 43.656C303.573 43.656 305.125 43.96 306.501 44.568C307.909 45.176 309.093 46.056 310.053 47.208C311.045 48.328 311.797 49.688 312.309 51.288C312.821 52.888 313.077 54.664 313.077 56.616C313.077 58.6 312.821 60.392 312.309 61.992C311.797 63.56 311.045 64.92 310.053 66.072C309.093 67.192 307.909 68.056 306.501 68.664C305.125 69.272 303.573 69.576 301.845 69.576ZM301.845 66.264C303.989 66.264 305.717 65.624 307.029 64.344C308.341 63.064 308.997 61.08 308.997 58.392V54.84C308.997 52.152 308.341 50.168 307.029 48.888C305.717 47.608 303.989 46.968 301.845 46.968C299.701 46.968 297.973 47.608 296.661 48.888C295.349 50.168 294.693 52.152 294.693 54.84V58.392C294.693 61.08 295.349 63.064 296.661 64.344C297.973 65.624 299.701 66.264 301.845 66.264ZM319.01 69V44.232H322.85V48.264H323.042C323.298 47.656 323.618 47.08 324.002 46.536C324.386 45.96 324.85 45.464 325.394 45.048C325.97 44.632 326.642 44.296 327.41 44.04C328.178 43.784 329.074 43.656 330.098 43.656C332.69 43.656 334.77 44.488 336.338 46.152C337.906 47.784 338.69 50.104 338.69 53.112V69H334.85V53.784C334.85 51.512 334.354 49.832 333.362 48.744C332.37 47.624 330.914 47.064 328.994 47.064C328.226 47.064 327.474 47.16 326.738 47.352C326.002 47.544 325.346 47.832 324.77 48.216C324.194 48.6 323.73 49.096 323.378 49.704C323.026 50.312 322.85 51.016 322.85 51.816V69H319.01ZM355.999 69.576C354.207 69.576 352.591 69.272 351.151 68.664C349.743 68.056 348.527 67.192 347.503 66.072C346.511 64.92 345.743 63.56 345.199 61.992C344.655 60.392 344.383 58.616 344.383 56.664C344.383 54.68 344.655 52.888 345.199 51.288C345.775 49.688 346.559 48.328 347.551 47.208C348.543 46.056 349.727 45.176 351.103 44.568C352.511 43.96 354.063 43.656 355.759 43.656C357.423 43.656 358.927 43.96 360.271 44.568C361.647 45.176 362.815 46.024 363.775 47.112C364.735 48.168 365.471 49.432 365.983 50.904C366.495 52.376 366.751 53.992 366.751 55.752V57.576H348.415V58.728C348.415 59.816 348.591 60.824 348.943 61.752C349.295 62.68 349.791 63.48 350.431 64.152C351.103 64.824 351.903 65.352 352.831 65.736C353.791 66.088 354.847 66.264 355.999 66.264C357.663 66.264 359.103 65.88 360.319 65.112C361.535 64.344 362.463 63.288 363.103 61.944L365.935 63.864C365.199 65.528 363.967 66.904 362.239 67.992C360.543 69.048 358.463 69.576 355.999 69.576ZM355.759 46.824C354.703 46.824 353.727 47.016 352.831 47.4C351.935 47.784 351.151 48.312 350.479 48.984C349.839 49.656 349.327 50.456 348.943 51.384C348.591 52.28 348.415 53.272 348.415 54.36V54.696H362.623V54.168C362.623 53.08 362.447 52.088 362.095 51.192C361.775 50.296 361.311 49.528 360.703 48.888C360.127 48.216 359.407 47.704 358.543 47.352C357.711 47 356.783 46.824 355.759 46.824ZM372.733 69V44.232H376.573V48.264H376.765C377.021 47.656 377.341 47.08 377.725 46.536C378.109 45.96 378.573 45.464 379.117 45.048C379.693 44.632 380.365 44.296 381.133 44.04C381.901 43.784 382.797 43.656 383.821 43.656C386.413 43.656 388.493 44.488 390.061 46.152C391.629 47.784 392.413 50.104 392.413 53.112V69H388.573V53.784C388.573 51.512 388.077 49.832 387.085 48.744C386.093 47.624 384.637 47.064 382.717 47.064C381.949 47.064 381.197 47.16 380.461 47.352C379.725 47.544 379.069 47.832 378.493 48.216C377.917 48.6 377.453 49.096 377.101 49.704C376.749 50.312 376.573 51.016 376.573 51.816V69H372.733ZM410.49 69C408.602 69 407.21 68.472 406.314 67.416C405.45 66.36 405.018 65 405.018 63.336V47.496H396.762V44.232H402.906C403.738 44.232 404.314 44.072 404.634 43.752C404.986 43.4 405.162 42.808 405.162 41.976V35.496H408.858V44.232H420.138V47.496H408.858V65.736H420.138V69H410.49ZM200.4 114.968H200.208C198.608 118.04 196.064 119.576 192.576 119.576C189.536 119.576 187.152 118.44 185.424 116.168C183.728 113.896 182.88 110.712 182.88 106.616C182.88 102.52 183.728 99.336 185.424 97.064C187.152 94.792 189.536 93.656 192.576 93.656C196.064 93.656 198.608 95.192 200.208 98.264H200.4V83.48H204.24V119H200.4V114.968ZM194.064 116.168C194.928 116.168 195.744 116.056 196.512 115.832C197.28 115.608 197.952 115.288 198.528 114.872C199.104 114.424 199.552 113.896 199.872 113.288C200.224 112.648 200.4 111.912 200.4 111.08V102.152C200.4 101.32 200.224 100.6 199.872 99.992C199.552 99.352 199.104 98.824 198.528 98.408C197.952 97.96 197.28 97.624 196.512 97.4C195.744 97.176 194.928 97.064 194.064 97.064C191.824 97.064 190.08 97.752 188.832 99.128C187.616 100.472 187.008 102.264 187.008 104.504V108.728C187.008 110.968 187.616 112.776 188.832 114.152C190.08 115.496 191.824 116.168 194.064 116.168ZM210.557 115.736H217.805V97.496H210.557V94.232H221.645V100.472H221.885C222.397 98.52 223.357 97 224.765 95.912C226.205 94.792 228.029 94.232 230.237 94.232H233.693V98.072H229.037C226.829 98.072 225.037 98.712 223.661 99.992C222.317 101.272 221.645 102.952 221.645 105.032V115.736H231.245V119H210.557V115.736ZM249.659 88.76C248.539 88.76 247.755 88.536 247.307 88.088C246.859 87.608 246.635 87.016 246.635 86.312V85.544C246.635 84.84 246.859 84.264 247.307 83.816C247.755 83.336 248.539 83.096 249.659 83.096C250.779 83.096 251.563 83.336 252.011 83.816C252.459 84.264 252.683 84.84 252.683 85.544V86.312C252.683 87.016 252.459 87.608 252.011 88.088C251.563 88.536 250.779 88.76 249.659 88.76ZM238.811 115.736H247.739V97.496H238.811V94.232H251.579V115.736H259.931V119H238.811V115.736ZM272.536 119L263.656 94.232H267.544L271.096 104.6L274.936 115.784H275.128L278.968 104.6L282.52 94.232H286.312L277.432 119H272.536ZM302.277 119.576C300.485 119.576 298.869 119.272 297.429 118.664C296.021 118.056 294.805 117.192 293.781 116.072C292.789 114.92 292.021 113.56 291.477 111.992C290.933 110.392 290.661 108.616 290.661 106.664C290.661 104.68 290.933 102.888 291.477 101.288C292.053 99.688 292.837 98.328 293.829 97.208C294.821 96.056 296.005 95.176 297.381 94.568C298.789 93.96 300.341 93.656 302.037 93.656C303.701 93.656 305.205 93.96 306.549 94.568C307.925 95.176 309.093 96.024 310.053 97.112C311.013 98.168 311.749 99.432 312.261 100.904C312.773 102.376 313.029 103.992 313.029 105.752V107.576H294.693V108.728C294.693 109.816 294.869 110.824 295.221 111.752C295.573 112.68 296.069 113.48 296.709 114.152C297.381 114.824 298.181 115.352 299.109 115.736C300.069 116.088 301.125 116.264 302.277 116.264C303.941 116.264 305.381 115.88 306.597 115.112C307.813 114.344 308.741 113.288 309.381 111.944L312.213 113.864C311.477 115.528 310.245 116.904 308.517 117.992C306.821 119.048 304.741 119.576 302.277 119.576ZM302.037 96.824C300.981 96.824 300.005 97.016 299.109 97.4C298.213 97.784 297.429 98.312 296.757 98.984C296.117 99.656 295.605 100.456 295.221 101.384C294.869 102.28 294.693 103.272 294.693 104.36V104.696H308.901V104.168C308.901 103.08 308.725 102.088 308.373 101.192C308.053 100.296 307.589 99.528 306.981 98.888C306.405 98.216 305.685 97.704 304.821 97.352C303.989 97 303.061 96.824 302.037 96.824ZM319.01 119V94.232H322.85V98.264H323.042C323.298 97.656 323.618 97.08 324.002 96.536C324.386 95.96 324.85 95.464 325.394 95.048C325.97 94.632 326.642 94.296 327.41 94.04C328.178 93.784 329.074 93.656 330.098 93.656C332.69 93.656 334.77 94.488 336.338 96.152C337.906 97.784 338.69 100.104 338.69 103.112V119H334.85V103.784C334.85 101.512 334.354 99.832 333.362 98.744C332.37 97.624 330.914 97.064 328.994 97.064C328.226 97.064 327.474 97.16 326.738 97.352C326.002 97.544 325.346 97.832 324.77 98.216C324.194 98.6 323.73 99.096 323.378 99.704C323.026 100.312 322.85 101.016 322.85 101.816V119H319.01Z" fill="#3E4F70"/>
<path d="M352.688 119.432C351.376 119.432 350.448 119.16 349.904 118.616C349.392 118.072 349.136 117.384 349.136 116.552V115.688C349.136 114.856 349.392 114.168 349.904 113.624C350.448 113.08 351.376 112.808 352.688 112.808C354 112.808 354.912 113.08 355.424 113.624C355.968 114.168 356.24 114.856 356.24 115.688V116.552C356.24 117.384 355.968 118.072 355.424 118.616C354.912 119.16 354 119.432 352.688 119.432ZM378.205 88.76C377.085 88.76 376.301 88.536 375.853 88.088C375.405 87.608 375.181 87.016 375.181 86.312V85.544C375.181 84.84 375.405 84.264 375.853 83.816C376.301 83.336 377.085 83.096 378.205 83.096C379.325 83.096 380.109 83.336 380.557 83.816C381.005 84.264 381.229 84.84 381.229 85.544V86.312C381.229 87.016 381.005 87.608 380.557 88.088C380.109 88.536 379.325 88.76 378.205 88.76ZM367.357 115.736H376.285V97.496H367.357V94.232H380.125V115.736H388.477V119H367.357V115.736ZM405.45 119.576C403.722 119.576 402.154 119.272 400.746 118.664C399.37 118.056 398.186 117.192 397.194 116.072C396.234 114.92 395.498 113.56 394.986 111.992C394.474 110.392 394.218 108.6 394.218 106.616C394.218 104.664 394.474 102.888 394.986 101.288C395.498 99.688 396.234 98.328 397.194 97.208C398.186 96.056 399.37 95.176 400.746 94.568C402.154 93.96 403.722 93.656 405.45 93.656C407.178 93.656 408.73 93.96 410.106 94.568C411.514 95.176 412.698 96.056 413.658 97.208C414.65 98.328 415.402 99.688 415.914 101.288C416.426 102.888 416.682 104.664 416.682 106.616C416.682 108.6 416.426 110.392 415.914 111.992C415.402 113.56 414.65 114.92 413.658 116.072C412.698 117.192 411.514 118.056 410.106 118.664C408.73 119.272 407.178 119.576 405.45 119.576ZM405.45 116.264C407.594 116.264 409.322 115.624 410.634 114.344C411.946 113.064 412.602 111.08 412.602 108.392V104.84C412.602 102.152 411.946 100.168 410.634 98.888C409.322 97.608 407.594 96.968 405.45 96.968C403.306 96.968 401.578 97.608 400.266 98.888C398.954 100.168 398.298 102.152 398.298 104.84V108.392C398.298 111.08 398.954 113.064 400.266 114.344C401.578 115.624 403.306 116.264 405.45 116.264Z" fill="#A7B2C8"/>
<defs>
<linearGradient id="paint0_linear" x1="58.5445" y1="30.0427" x2="110.579" y2="120.088" gradientUnits="userSpaceOnUse">
<stop stop-color="#19BBFE"/>
<stop offset="1" stop-color="#E54958"/>
</linearGradient>
</defs>
</svg>
