<?xml version="1.0" encoding="UTF-8"?>
<svg width="350px" height="354px" viewBox="0 0 350 354" version="1.1" xmlns="http://www.w3.org/2000/svg" xmlns:xlink="http://www.w3.org/1999/xlink">
    <!-- Generator: Sketch 48.2 (47327) - http://www.bohemiancoding.com/sketch -->
    <title>Untitled 3</title>
    <desc>Created with Sketch.</desc>
    <defs></defs>
    <g id="Page-1" stroke="none" stroke-width="1" fill="none" fill-rule="evenodd">
        <g id="burgerking" fill-rule="nonzero">
            <path d="M263.037543,50.5290102 C263.87372,48.4982935 262.201365,46.5870307 262.201365,46.5870307 C262.201365,46.5870307 249.061433,24.3686007 202.832765,19.3515358 C177.986348,16.7235495 144.300341,21.7406143 120.648464,34.5221843 C77.6450512,57.5767918 71.1945392,95.6825939 71.1945392,95.6825939 C70.9556314,96.6382253 70.5972696,99.5051195 71.552901,100.699659 C72.5085324,101.894198 73.9419795,101.894198 75.7337884,101.296928 C90.9044369,96.1604096 135.938567,81.2286689 164.368601,73.7030717 C204.863481,62.9522184 238.191126,56.3822526 259.453925,52.7986348 C261.12628,52.440273 262.440273,51.9624573 263.037543,50.5290102" id="path11" fill="#FAAF18"></path>
            <path d="M309.266212,229.948805 C285.017065,284.419795 238.549488,322.286689 177.508532,323.122867 C133.191126,323.720137 94.0102389,308.549488 65.6996587,282.030717 L48.6177474,289.317406 L48.6177474,262.798635 C29.9829352,237.713311 19.112628,205.819113 19.112628,169.744027 C19.112628,77.1672355 89.9488055,4.3003413 188.856655,4.3003413 C204.982935,4.3003413 219.556314,6.80887372 230.546075,9.31740614 C213.583618,3.94197952 196.740614,0.955631399 177.986348,0.955631399 C71.9112628,0.955631399 0.4778157,86.9624573 0.4778157,175.716724 C0.4778157,272.354949 76.331058,353.34471 175.836177,353.34471 C270.921502,353.34471 322.167235,286.331058 338.651877,245.955631 L309.266212,229.948805" id="path13" fill="#185494"></path>
            <path d="M284.658703,210.836177 C298.634812,209.283276 308.31058,203.668942 313.566553,198.412969 C318.34471,193.634812 319.539249,187.1843 319.539249,182.286689 C319.778157,175.119454 319.539249,152.662116 319.539249,152.662116 L282.627986,160.665529 C282.627986,160.665529 282.627986,163.412969 282.627986,169.266212 C282.74744,175 285.494881,178.105802 291.467577,177.030717 C293.37884,176.672355 296.245734,175.836177 296.245734,175.836177 L296.245734,182.883959 C296.245734,182.645051 296.843003,186.825939 287.525597,188.617747 C275.341297,190.52901 269.846416,183.003413 269.726962,169.744027 C269.96587,155.52901 277.969283,147.406143 287.764505,145.136519 C298.754266,142.627986 304.96587,145.255973 308.549488,145.733788 C320.733788,147.525597 324.197952,129.249147 313.088737,124.948805 C304.846416,121.604096 294.215017,121.006826 284.061433,123.037543 C270.443686,125.784983 243.805461,137.133106 243.686007,174.044369 C243.566553,203.430034 265.187713,212.986348 284.658703,210.836177" id="path15" fill="#ED1D21"></path>
            <path d="M164.607509,242.25256 C164.607509,242.25256 175.955631,238.31058 176.911263,238.071672 C185.989761,234.96587 189.334471,229.47099 189.334471,220.153584 C189.215017,210 189.215017,190.170648 189.215017,190.170648 L215.614334,220.511945 C219.914676,224.931741 225.290102,225.290102 230.187713,223.856655 C235.204778,222.423208 239.505119,217.764505 239.624573,211.194539 C239.624573,189.334471 239.624573,135.819113 239.624573,135.819113 C239.624573,135.819113 232.8157,137.25256 227.201365,138.805461 C220.750853,140.59727 215.733788,144.778157 215.733788,155.767918 C215.733788,159.590444 215.733788,181.928328 215.733788,181.928328 C215.733788,181.928328 200.682594,163.174061 191.006826,153.498294 C185.870307,148.361775 177.269625,151.467577 177.269625,151.467577 L164.607509,155.290102 L164.607509,242.25256" id="path17" fill="#EE1C23"></path>
            <path d="M156.604096,157.201365 C156.604096,157.201365 148.720137,159.47099 142.269625,161.860068 C133.90785,164.846416 129.010239,169.744027 129.010239,182.406143 C129.010239,194.112628 129.010239,254.675768 129.010239,254.675768 C129.010239,254.675768 136.296928,252.167235 143.225256,249.539249 C152.901024,245.836177 156.604096,240.819113 156.604096,230.665529 C156.604096,221.945392 156.604096,157.201365 156.604096,157.201365" id="path19" fill="#ED1C23"></path>
            <path d="M117.303754,174.40273 C110.017065,171.05802 103.805461,174.761092 101.177474,178.822526 L78.8395904,216.928328 L78.8395904,186.228669 L52.3208191,197.098976 L52.2013652,283.822526 L70.8361775,276.05802 C70.8361775,276.05802 74.5392491,274.982935 76.6894198,271.518771 C78.7201365,268.293515 78.6006826,263.037543 78.6006826,263.037543 L78.6006826,235.56314 L99.3856655,257.662116 C103.924915,262.440273 112.286689,264.829352 119.692833,258.856655 C126.382253,253.481229 125.307167,244.283276 121.604096,240.102389 L102.730375,221.109215 C102.730375,221.109215 119.334471,194.829352 122.081911,190.52901 C125.665529,184.556314 123.87372,177.389078 117.303754,174.40273" id="path21" fill="#EE1D23"></path>
            <path d="M106.911263,276.416382 C105.955631,278.686007 108.225256,280.955631 108.225256,280.955631 C117.78157,293.020478 160.426621,308.31058 206.774744,297.081911 C277.491468,280 292.423208,229.948805 294.095563,222.901024 C294.453925,221.467577 294.692833,219.197952 293.37884,217.764505 C292.303754,216.569966 290.631399,216.569966 288.481229,217.047782 C239.266212,228.634812 157.679181,253.600683 110.494881,273.788396 C108.464164,274.624573 107.627986,274.982935 106.911263,276.416382" id="path23" fill="#FAAF18"></path>
            <path d="M64.9829352,162.696246 C64.8634812,157.918089 61.1604096,155.290102 54.8293515,158.515358 L54.8293515,173.924915 C54.8293515,173.924915 56.8600683,172.969283 58.4129693,172.25256 C62.2354949,170.460751 65.1023891,167.354949 64.9829352,162.696246 Z M54.7098976,148.720137 C55.9044369,148.242321 56.7406143,147.883959 57.6962457,147.406143 C61.1604096,145.733788 63.668942,142.508532 63.668942,138.447099 C63.668942,133.788396 59.8464164,132.593857 54.7098976,135.221843 C54.7098976,135.341297 54.7098976,148.720137 54.7098976,148.720137 Z M81.9453925,160.426621 C82.1843003,172.610922 73.4641638,179.061433 61.996587,183.720137 L38.7030717,193.634812 L38.7030717,130.443686 C38.7030717,130.443686 53.3959044,124.47099 58.1740614,122.679181 C71.7918089,117.662116 79.7952218,123.754266 79.7952218,132.832765 C79.7952218,138.924915 77.1672355,144.061433 71.552901,148.600683 C77.0477816,149.556314 81.8259386,154.095563 81.9453925,160.426621 Z" id="path25" fill="#EE1C23"></path>
            <path d="M126.143345,107.150171 C126.143345,101.774744 122.440273,100.460751 118.020478,101.65529 C114.43686,102.730375 110.255973,104.283276 110.255973,104.283276 L110.255973,143.583618 C110.255973,147.525597 109.658703,152.423208 104.761092,153.617747 C101.05802,154.573379 99.2662116,152.064846 99.2662116,148.122867 L99.2662116,115.989761 C99.2662116,110.614334 95.5631399,109.061433 91.1433447,110.494881 C86.1262799,112.167235 83.2593857,113.361775 83.2593857,113.361775 C83.2593857,113.361775 83.2593857,141.194539 83.2593857,152.303754 C83.1399317,165.324232 92.21843,171.894198 105.836177,167.832765 C117.901024,164.249147 126.023891,157.440273 126.143345,140.119454 L126.143345,107.150171" id="path27" fill="#ED1D1F"></path>
            <path d="M255.870307,123.395904 C259.334471,122.679181 261.484642,120.170648 261.484642,115.870307 C261.484642,112.047782 261.484642,109.061433 261.484642,109.061433 L242.610922,113.242321 L242.610922,102.133106 C242.610922,102.133106 251.928328,100.221843 254.43686,99.6245734 C257.662116,98.9078498 259.334471,97.116041 259.334471,93.4129693 C259.334471,89.9488055 259.334471,86.9624573 259.334471,86.9624573 L242.610922,90.5460751 L242.610922,81.7064846 C242.610922,81.7064846 251.331058,79.9146758 255.989761,78.9590444 C259.692833,78.2423208 260.887372,75.7337884 260.887372,72.2696246 C260.887372,70 260.887372,65.5802048 260.887372,65.5802048 C252.525597,67.0136519 236.638225,70.2389078 226.723549,72.5085324 L226.604096,130.085324 C226.604096,130.085324 245.477816,125.665529 255.870307,123.395904" id="path29" fill="#EE1C23"></path>
            <path d="M146.450512,121.006826 C146.450512,121.006826 155.767918,116.109215 155.767918,108.464164 C155.648464,101.894198 149.675768,103.327645 146.569966,104.522184 L146.450512,121.006826 Z M146.569966,129.96587 C146.569966,129.96587 146.569966,140.955631 146.569966,145.494881 C146.569966,149.675768 143.703072,152.662116 140.119454,154.095563 C140.119454,154.215017 140.119454,153.976109 140.119454,154.095563 C137.133106,155.170648 130.682594,157.320819 130.682594,157.320819 L130.682594,97.9522184 C130.682594,97.9522184 143.94198,93.2935154 151.706485,91.5017065 C163.651877,88.6348123 172.25256,94.1296928 172.133106,103.924915 C172.013652,113.242321 166.877133,118.856655 162.21843,122.798635 L172.491468,132.593857 C175.59727,135.699659 175.836177,141.194539 172.372014,144.539249 C170.221843,146.569966 164.607509,148.600683 160.307167,144.061433 C160.187713,144.061433 146.569966,129.96587 146.569966,129.96587 Z" id="path31" fill="#EE1D23"></path>
            <path d="M280.477816,89.112628 C280.477816,89.112628 289.675768,85.6484642 289.556314,78.2423208 C289.43686,72.0307167 283.34471,73.105802 280.358362,73.8225256 L280.477816,89.112628 Z M264.948805,121.604096 L264.948805,64.7440273 C264.948805,64.7440273 281.552901,61.7576792 285.853242,61.2798635 C297.798635,59.7269625 305.802048,66.4163823 305.56314,75.7337884 C305.443686,83.9761092 300.307167,88.9931741 295.887372,91.9795222 C295.887372,91.9795222 304.010239,101.05802 306.16041,103.566553 C309.027304,106.791809 308.90785,112.406143 304.607509,115.153584 C300.426621,117.78157 296.12628,116.467577 293.737201,113.720137 L280.477816,97.9522184 C280.477816,97.9522184 280.477816,107.627986 280.477816,111.808874 C280.477816,115.989761 277.969283,119.095563 273.668942,119.931741 L264.948805,121.604096 Z" id="path33" fill="#EE1D23"></path>
            <path d="M222.901024,97.7133106 L199.368601,103.088737 C199.368601,103.088737 199.368601,105.59727 199.368601,109.658703 C199.368601,112.764505 201.518771,114.675768 204.624573,114.078498 C206.535836,113.720137 208.088737,113.361775 208.088737,113.361775 L208.088737,119.931741 C208.088737,122.559727 204.266212,124.232082 200.204778,124.112628 C194.47099,123.87372 191.365188,119.453925 191.245734,111.09215 C191.365188,100.102389 196.62116,93.6518771 203.668942,91.8600683 C207.133106,90.9044369 210.358362,91.3822526 212.866894,91.7406143 C218.959044,92.6962457 222.423208,89.8293515 222.542662,84.8122867 C222.662116,79.4368601 217.883959,76.0921502 207.730375,76.4505119 C185.511945,77.1672355 174.163823,93.1740614 174.163823,112.167235 C174.163823,131.638225 186.945392,140.238908 202.474403,137.491468 C211.194539,135.699659 215.614334,132.832765 218.600683,130.204778 C221.587031,127.576792 222.901024,123.634812 222.901024,120.170648 L222.901024,97.7133106" id="path35" fill="#EE1D23"></path>
            <path d="M130.085324,34.0443686 C104.044369,45.5119454 86.4846416,72.8668942 85.5290102,84.334471 C85.1706485,88.8737201 91.2627986,89.5904437 91.8600683,84.6928328 C97.3549488,63.668942 114.078498,43.8395904 130.085324,34.0443686" id="path37" fill="#FFFFFF"></path>
            <path d="M216.211604,53.6348123 C230.187713,50.1706485 237.952218,49.6928328 238.071672,43.3617747 C238.31058,32.8498294 208.447099,20.665529 180.972696,22.9351536 C208.924915,24.8464164 225.648464,35.5972696 225.648464,43.003413 C225.767918,47.78157 221.587031,51.9624573 216.211604,53.6348123" id="path39" fill="#FFFFFF"></path>
            <path d="M224.812287,285.375427 C245.836177,277.133106 266.023891,261.245734 277.25256,237.593857 C280.477816,230.784983 271.16041,227.201365 268.532423,235.324232 C261.962457,252.167235 248.583618,271.877133 224.812287,285.375427" id="path41" fill="#FFFFFF"></path>
            <path d="M330.767918,214.300341 L333.634812,214.300341 C335.187713,214.300341 337.21843,214.539249 337.21843,216.450512 C337.21843,218.600683 335.784983,218.83959 333.87372,218.83959 L330.887372,218.83959 L330.767918,214.300341 Z M327.303754,228.754266 L330.648464,228.754266 L330.648464,221.467577 L332.798635,221.467577 L336.979522,228.754266 L340.56314,228.754266 L336.023891,221.228669 C338.532423,220.989761 340.56314,219.795222 340.56314,216.68942 C340.56314,212.986348 338.174061,211.552901 333.87372,211.552901 L327.303754,211.552901 L327.303754,228.754266 Z M317.74744,220.153584 C317.74744,229.47099 325.153584,235.56314 333.515358,235.56314 C341.877133,235.56314 349.283276,229.590444 349.283276,220.153584 C349.283276,210.836177 341.877133,204.863481 333.515358,204.863481 C325.153584,204.863481 317.74744,210.836177 317.74744,220.153584 Z M321.928328,220.153584 C321.928328,213.225256 327.064846,208.088737 333.515358,208.088737 C339.846416,208.088737 345.102389,213.105802 345.102389,220.153584 C345.102389,227.201365 339.846416,232.21843 333.515358,232.21843 C327.064846,232.337884 321.928328,227.201365 321.928328,220.153584 Z" id="path43" fill="#EE1D23"></path>
        </g>
    </g>
</svg>