<?xml version="1.0" encoding="UTF-8"?>
<svg width="351px" height="353px" viewBox="0 0 351 353" version="1.1" xmlns="http://www.w3.org/2000/svg" xmlns:xlink="http://www.w3.org/1999/xlink">
    <!-- Generator: Sketch 48.2 (47327) - http://www.bohemiancoding.com/sketch -->
    <title>Untitled</title>
    <desc>Created with Sketch.</desc>
    <defs></defs>
    <g id="Page-1" stroke="none" stroke-width="1" fill="none" fill-rule="evenodd">
        <g id="hungryjacks" fill-rule="nonzero">
            <path d="M330.7185,339.339 C332.157,339.339 333.438,339.239833 333.438,337.5155 C333.438,336.142333 332.183833,335.885667 331.002,335.885667 L328.697833,335.885667 L328.697833,339.339 L330.7185,339.339 Z M328.697833,345.611 L327.007333,345.611 L327.007333,334.440167 L331.259833,334.440167 C333.901167,334.440167 335.202,335.417833 335.202,337.622833 C335.202,339.623667 333.953667,340.495167 332.309833,340.7005 L335.4855,345.612167 L333.597833,345.612167 L330.646167,340.772833 L328.699,340.772833 L328.699,345.611 L328.697833,345.611 Z M330.863167,348.273333 C335.241667,348.273333 338.700833,344.832833 338.700833,340.172 C338.700833,335.589333 335.241667,332.130167 330.863167,332.130167 C326.426333,332.130167 322.973,335.589333 322.973,340.172 C322.973,344.831667 326.426333,348.273333 330.863167,348.273333 Z M321.025833,340.170833 C321.025833,334.611667 325.535,330.519 330.863167,330.519 C336.138833,330.519 340.649167,334.612833 340.649167,340.170833 C340.649167,345.783667 336.14,349.876333 330.863167,349.876333 C325.535,349.8775 321.025833,345.783667 321.025833,340.170833 Z" id="Shape" fill="#ED1C24"></path>
            <path d="M174.953333,351.89 C284.303833,351.89 339.6715,332.683167 349.601,296.000833 C351.251833,289.2925 345.8105,287.259 340.370333,287.259 L174.953333,287.259 L9.53516667,287.259 C4.095,287.259 -1.34516667,289.2925 0.298666667,296.000833 C10.241,332.683167 65.6098333,351.89 174.953333,351.89" id="Shape" fill="#FFC20E"></path>
            <path d="M175.0525,0 C65.709,0 7.43633333,37.5351667 0.397833333,75.2873333 C-1.246,83.9498333 4.18716667,86.933 9.63433333,86.933 C15.0955,86.933 175.0525,86.933 175.0525,86.933 C175.0525,86.933 335.0095,86.933 340.4625,86.933 C345.903833,86.933 351.349833,83.9486667 349.700167,75.2873333 C342.668667,37.5351667 284.396,0 175.0525,0" id="Shape" fill="#FFC20E"></path>
            <path d="M138.488,141.615833 L138.488,159.481 C138.488,163.555 132.902,166.328167 129.08,166.328167 C125.251,166.328167 119.665,164.129 119.665,159.481 L119.665,150.343667 L119.665,111.528667 C119.665,106.8865 125.251,104.3385 129.08,104.3385 C133.932167,104.3385 136.831333,107.038167 139.108667,109.996833 L154.077,128.840833 C155.251833,130.331833 156.969167,130.569833 156.969167,129.236333 L156.969167,111.528667 C156.969167,106.8865 162.555167,104.3385 166.384167,104.3385 C170.206167,104.3385 175.792167,106.887667 175.792167,111.528667 L175.792167,148.2775 L175.792167,159.482167 C175.792167,164.1045 170.206167,166.329333 166.384167,166.329333 C163.0965,166.329333 160.904333,166.262833 156.942333,161.390833 C152.980333,156.518833 141.057,141.617 141.057,141.617 C140.236833,140.558833 138.488,140.315 138.488,141.615833" id="Shape" fill="#ED1C24"></path>
            <path d="M90.0118333,166.632667 C101.164,166.632667 113.953,159.369 113.953,149.042833 L113.953,111.395667 C113.953,106.926167 108.532667,104.998833 104.808667,104.998833 C101.0975,104.998833 95.6713333,106.926167 95.6713333,111.395667 L95.6713333,145.392333 C95.6713333,147.882 92.6998333,149.301833 90.0118333,149.301833 C87.325,149.301833 84.3535,147.882 84.3535,145.392333 L84.3535,111.395667 C84.3535,106.926167 78.9261667,104.998833 75.2091667,104.998833 C71.491,104.998833 66.0706667,106.926167 66.0706667,111.395667 L66.0706667,149.042833 C66.0718333,159.370167 78.8608333,166.632667 90.0118333,166.632667" id="Shape" fill="#ED1C24"></path>
            <path d="M265.129667,131.037667 C268.787167,131.037667 271.863667,128.583 271.863667,124.507833 C271.863667,120.447833 270.582667,117.878833 264.805333,117.878833 C262.665667,117.878833 262.131333,118.307 261.458167,119.1855 L261.458167,129.941 C261.458167,131.098333 262.771833,131.037667 265.129667,131.037667 M282.182833,139.799333 C281.318333,140.441 281.4175,140.9415 281.839833,141.523667 L291.975833,154.728 C294.617167,158.160333 292.080833,162.968167 288.6345,165.1335 C285.538167,167.081833 278.896333,167.358333 276.249167,163.926 L263.307333,147.135333 C262.581667,146.249833 261.531667,146.613833 261.531667,147.775833 L261.531667,160.207833 C261.531667,164.585167 256.138167,166.467 252.441,166.467 C248.742667,166.467 243.342167,164.585167 243.342167,160.207833 L243.342167,113.0395 L243.342167,112.214667 C243.342167,107.830333 248.063667,105.492333 252.441,105.492333 L269.620167,105.492333 C284.918667,105.492333 290.154667,117.290833 290.154667,123.4975 C290.152333,129.057833 288.541167,135.448833 282.182833,139.799333" id="Shape" fill="#ED1C24"></path>
            <path d="M216.693167,143.887333 C209.952167,143.887333 208.829833,139.291833 208.829833,135.924833 C208.829833,132.556667 210.275333,128.220167 216.851833,128.220167 L230.010667,128.220167 C234.658667,128.220167 237.550833,130.029667 237.550833,134.492167 L237.550833,151.407667 C237.550833,161.113167 225.197,166.408667 211.5575,166.408667 C193.961833,166.408667 180.1555,156.662333 180.1555,135.119833 C180.1555,116.83 193.103167,104.154167 211.734833,104.154167 C221.268833,104.154167 228.5115,106.187667 233.536333,110.572 C237.227667,113.832833 235.676,118.171667 234.2375,120.145667 C232.792,122.1255 229.5825,125.176333 223.752667,122.549 C217.922833,119.9345 216.2125,119.882 212.681,119.882 C202.809833,119.882 199.3635,127.184167 199.3635,135.364833 C199.3635,143.5455 203.616,150.2865 211.076833,150.2865 C217.170333,150.2865 219.322833,148.398833 219.098833,145.236 C219.097667,144.032 218.535333,143.887333 216.693167,143.887333" id="Shape" fill="#ED1C24"></path>
            <path d="M29.8305,143.9725 C28.6685,143.9725 27.6185,144.387833 27.6185,145.860167 L27.6185,148.673 L27.6185,159.6525 C27.6185,164.208333 22.0861667,166.367833 18.2956667,166.367833 C14.5133333,166.367833 8.981,164.208333 8.981,159.6525 L8.981,150.6925 L8.981,112.315 C8.981,107.766167 14.5133333,105.606667 18.2956667,105.606667 C22.0861667,105.606667 27.6185,107.766167 27.6185,112.315 L27.6185,124.972167 C27.6185,126.364 28.5891667,126.912333 29.6788333,126.912333 L39.193,126.912333 C40.4401667,126.912333 41.2533333,126.364 41.2533333,124.972167 L41.2533333,112.315 C41.2533333,107.766167 46.7786667,105.606667 50.5691667,105.606667 C54.3515,105.606667 59.8908333,107.766167 59.8908333,112.315 L59.8908333,148.674167 L59.8908333,159.653667 C59.8908333,164.2095 54.3515,166.369 50.5691667,166.369 C46.7786667,166.369 41.2533333,164.2095 41.2533333,159.653667 L41.2533333,150.693667 L41.2533333,145.860167 C41.2533333,144.387833 40.2826667,143.9725 39.1206667,143.9725 L29.8305,143.9725 Z" id="Shape" fill="#ED1C24"></path>
            <path d="M316.344,120.561 C316.905167,121.445333 317.545667,121.445333 318.106833,120.4875 L325.098667,109.520833 C327.132167,105.691833 333.701667,104.892667 337.1025,106.239 C341.5125,108.001833 343.789833,112.8085 341.756333,116.631667 L328.017667,139.059667 C326.683,141.022 326.565167,141.813 326.565167,143.6085 L326.565167,159.765667 C326.565167,164.327333 321.032833,166.479833 317.249333,166.479833 M316.344,120.561 L309.391833,109.520833 C307.351333,105.691833 300.8215,104.998833 297.382167,106.239 C292.866,107.882833 290.693667,112.8085 292.727167,116.631667 L306.440167,139.014167 C307.477333,140.795667 307.925333,141.813 307.925333,143.6085 L307.925333,159.765667 C307.925333,164.327333 313.458833,166.479833 317.248167,166.479833" id="Shape" fill="#ED1C24"></path>
            <path d="M155.5155,224.7735 C155.5155,236.6385 160.045667,247.241167 172.986333,247.241167 C176.478167,247.241167 176.9285,246.779167 181.318667,244.752667 C189.043167,241.1675 193.176667,245.366333 195.071333,248.238667 C196.967167,251.109833 198.9995,256.919833 194.161333,261.654167 C189.281167,266.638167 182.336,269.57 171.752,269.57 C147.310333,269.57 130.328333,251.189167 130.328333,224.674333 C130.328333,198.1595 147.310333,179.778667 171.752,179.778667 C182.112,179.778667 188.72,182.155167 194.161333,187.7015 C198.9995,192.428833 196.967167,198.1665 195.071333,201.031833 C193.176667,203.904167 189.043167,208.122833 181.318667,204.517833 C177.377667,202.6885 176.631,202.028167 172.986333,202.028167 C160.045667,202.028167 155.489833,212.9085 155.489833,224.7735 L155.5155,224.7735 Z" id="Shape" fill="#ED1C24"></path>
            <path d="M108.572333,256.2945 L109.767,260.2495 C111.120333,266.039667 118.844833,269.347167 123.335333,268.562 C128.340333,267.663667 134.064,262.084667 131.971,255.666833 L126.597333,238.354667 L111.200833,188.816833 C109.2735,182.155167 101.4545,180.206833 96.7015,180.062167 C91.9473333,180.206833 84.0641667,182.260167 82.2021667,188.816833 L66.8056667,238.354667 L61.425,255.666833 C59.332,262.084667 65.0626667,267.663667 70.0606667,268.562 C74.55,269.347167 82.2815,266.039667 83.6348333,260.2495 L84.8295,256.300333 C85.1456667,255.060167 85.701,254.781333 86.7638333,254.781333 L106.729,254.781333 C108.155833,254.781333 108.276,255.3495 108.572333,256.2945" id="Shape" fill="#ED1C24"></path>
            <path d="M100.570167,236.691 C100.570167,236.691 93.2073333,236.691 92.4618333,236.691 C91.7035,236.691 91.0758333,236.182333 91.4526667,235.2455 L95.4263333,222.324667 C95.8486667,220.449833 97.4411667,220.217667 97.9883333,222.292 L101.962,235.232667 C102.372667,236.440167 101.950333,236.691 100.570167,236.691" id="Shape" fill="#FFFFFF"></path>
            <path d="M33.2768333,268.793 C52.094,268.793 57.4676667,256.810167 57.4676667,243.927833 L57.561,242.568667 L57.561,189.63 C57.561,183.006833 50.3113333,179.872 45.346,179.872 C40.3876667,179.872 33.131,183.008 33.131,189.63 L33.131,239.484 C33.6653333,247.413833 28.5413333,249.461333 26.5615,243.597667 C23.7416667,236.559167 16.6705,238.096833 13.944,239.484 C11.2245,240.87 7.329,244.469167 8.96583333,251.2895 C11.8463333,261.695 19.1881667,268.686833 33.2768333,268.793" id="Shape" fill="#ED1C24"></path>
            <path d="M268.305333,198.766167 L250.815833,220.091667 C250.815833,220.091667 247.217833,223.802833 250.030667,227.512833 C253.139833,231.613667 267.044167,247.867667 267.044167,247.867667 C267.044167,247.867667 276.3145,256.669 266.786333,265.027 C257.259333,273.3535 251.858833,266.189 251.858833,266.189 L229.2255,238.848167 C229.2255,238.848167 226.921333,236.616333 226.921333,240.690333 L226.954,240.4325 L226.954,243.364333 L226.954,259.408333 C226.954,266.056 219.678667,269.206 214.699333,269.206 C209.727,269.206 202.451667,266.056 202.451667,259.408333 L202.451667,190.267 C202.451667,183.611167 209.727,180.469333 214.699333,180.469333 C219.678667,180.469333 226.954,183.611167 226.954,190.267 L226.954,209.0375 L226.921333,208.786667 C226.921333,211.1235 228.373833,211.222667 229.383,209.876333 L249.751833,185.441667 C254.307667,179.611833 261.108167,179.459 266.634667,184.1665 C271.5265,188.335 272.538,193.503333 268.305333,198.766167" id="Shape" fill="#ED1C24"></path>
            <path d="M311.353,268.963333 C299.541667,268.963333 292.516,266.785167 286.692,261.3835 C282.123333,256.8685 284.032,251.361833 285.814667,248.6155 C287.596167,245.869167 291.565167,241.623667 298.774,245.261333 C305.184833,248.490667 305.991,247.737 309.015,247.737 C313.511333,247.737 315.530833,244.283667 315.530833,240.626167 C315.530833,236.9815 312.282833,235.660833 309.8795,235.1265 L304.609667,234.049667 C294.35,232.009167 284.116,224.205333 284.128833,212.5655 C284.1545,193.333 296.086,180.391167 315.477167,180.391167 L315.477167,180.385333 C326.001667,180.385333 330.999667,182.035 337.013833,187.951167 C341.576667,192.480167 339.655167,197.842167 337.8725,200.5815 C336.082833,203.327833 332.042667,207.725 324.905,203.921667 C319.6235,201.103 318.613167,201.471667 316.164333,201.471667 C312.300333,201.471667 310.301833,204.198167 310.301833,207.5325 C310.301833,210.543667 313.661833,212.023 315.669667,212.564333 L321.6185,214.062333 C332.736833,216.8565 342.402667,224.765333 342.515833,238.518 C342.682667,256.214 332.817333,268.963333 311.353,268.963333" id="Shape" fill="#ED1C24"></path>
            <path d="M274.247167,196.600833 C271.5195,198.331 274.187667,201.923167 276.432333,201.744667 C278.927833,201.559167 288.9635,192.719333 285.035333,183.936667 C284.018,181.659333 281.780333,179.956 279.032833,179.956 C275.487333,179.956 272.615,182.729167 272.615,186.142833 C272.746833,190.3615 275.164167,191.597 275.969167,191.913167 C276.774167,192.2235 276.557167,192.837167 276.483667,193.226833 C275.970333,194.699167 275.6075,195.319833 274.247167,196.600833" id="Shape" fill="#ED1C24"></path>
        </g>
    </g>
</svg>